<?xml version="1.0" encoding="utf-8"?>
<!-- Generator: Adobe Illustrator 26.3.1, SVG Export Plug-In . SVG Version: 6.00 Build 0)  -->
<svg version="1.1" id="圖層_1" xmlns="http://www.w3.org/2000/svg" xmlns:xlink="http://www.w3.org/1999/xlink" x="0px" y="0px"
	 viewBox="0 0 113.3 70.7" style="enable-background:new 0 0 113.3 70.7;" xml:space="preserve">
<style type="text/css">
	.st0{fill:#FFFFFF;}
	.st1{fill:#231815;}
</style>
<g id="XMLID_14_">
	<path class="st1" d="M21.49,31.09c1.45,2.16,1.77,2.6,2.6,3.63h-6.38c-0.34-0.79-1.06-2.09-1.7-3.12l-3.81-6.09l-2.48,2.48v3.09
		c0,1.52,0.05,2.33,0.2,3.63H4.72c0.15-1.25,0.2-2.16,0.2-3.63V17.93c0-1.5-0.05-2.46-0.2-3.63h5.21c-0.15,1.28-0.2,2.09-0.2,3.63
		v4.35l4.89-5.23c0.96-1.01,1.6-1.84,2.14-2.75h6.63c-0.44,0.44-0.61,0.64-0.96,0.98c-1.28,1.28-1.28,1.28-1.72,1.72l-5.13,5.38
		L21.49,31.09z"/>
	<path class="st1" d="M37.07,31.09c0,1.28,0.05,2.36,0.2,3.63h-5.35c0.12-1.13,0.2-2.26,0.2-3.63v-4.54l-5.65-9.28
		c-0.44-0.76-0.98-1.57-1.97-2.97h6.21c0.27,0.86,0.54,1.5,1.15,2.58l2.73,4.99l2.73-4.96c0.61-1.13,0.96-1.89,1.13-2.6h6.21
		c-0.71,1.03-1.64,2.43-1.96,2.97l-5.62,9.28V31.09z"/>
	<path class="st1" d="M58.76,34.72c-0.15-0.79-0.44-1.79-1.2-3.83c-0.79-2.14-1.08-2.7-1.69-3.24c-0.52-0.47-1.13-0.66-1.92-0.66
		h-2.51v4.03c0,1.67,0.05,2.58,0.2,3.71h-5.28c0.15-1.13,0.2-1.87,0.2-3.68V17.83c0-1.52-0.05-2.43-0.2-3.61
		c1.08,0.05,1.99,0.07,3.66,0.07h6.39c3.98,0,6.29,2.06,6.29,5.6c0,1.74-0.49,3.12-1.45,4.03c-0.61,0.57-1.13,0.84-2.33,1.23
		c1.25,0.39,1.82,0.96,2.6,2.7c0.37,0.79,0.71,1.62,1.82,4.27c0.27,0.69,0.57,1.3,1.18,2.6H58.76z M55.27,22.79
		c1.45,0,2.33-0.88,2.33-2.28c0-1.38-0.79-2.09-2.31-2.09h-3.86v4.37H55.27z"/>
	<path class="st1" d="M71.95,14.29c-0.15,1.01-0.2,1.84-0.2,3.63v13.16c0,1.69,0.05,2.6,0.2,3.63h-5.4c0.15-0.96,0.2-1.99,0.2-3.63
		V17.93c0-1.84-0.05-2.55-0.2-3.63H71.95z"/>
	<path class="st1" d="M88.11,21.41c-0.47-2.24-1.77-3.34-3.88-3.34c-3,0-4.74,2.36-4.74,6.41c0,4,1.82,6.43,4.86,6.43
		c1.35,0,2.5-0.57,3.22-1.55c0.42-0.59,0.59-1.08,0.74-2.11l5.11,0.76c-0.47,2.09-1.01,3.29-2.04,4.49
		c-1.52,1.74-3.9,2.68-6.88,2.68c-3,0-5.53-0.93-7.27-2.7c-1.82-1.84-2.85-4.72-2.85-8.01c0-3.34,1.03-6.16,2.97-8.08
		c1.69-1.65,4.18-2.55,7.05-2.55c3.17,0,5.65,1.08,7.24,3.22c0.79,1.01,1.2,1.92,1.52,3.36L88.11,21.41z"/>
</g>
<g id="XMLID_13_">
	<path class="st1" d="M6.17,7.26c-0.58,0-0.78,0.01-0.82,0.01c-0.06,0-0.07-0.01-0.07-0.07V6.71c0-0.07,0.01-0.07,0.07-0.07
		c0.04,0,0.24,0.01,0.82,0.01h4.09c0.59,0,0.78-0.01,0.83-0.01c0.06,0,0.07,0.01,0.07,0.07V7.2c0,0.07-0.01,0.07-0.07,0.07
		c-0.05,0-0.24-0.01-0.83-0.01h-0.05v1.29c0,0.26,0.01,0.54,0.01,0.81c0,0.3-0.03,0.47-0.2,0.61c-0.15,0.1-0.31,0.15-0.8,0.14
		c-0.16,0-0.17-0.01-0.19-0.14C9.01,9.8,8.96,9.61,8.86,9.44c0.21,0.02,0.3,0.03,0.44,0.03c0.17,0,0.24-0.06,0.24-0.21v-2H6.17z
		 M6.83,5.35c-0.64,0-0.85,0.01-0.89,0.01c-0.07,0-0.08-0.01-0.08-0.08V4.84c0-0.06,0.01-0.07,0.08-0.07c0.03,0,0.25,0.01,0.89,0.01
		H7.8l0.01-0.05c0.04-0.21,0.06-0.46,0.05-0.66c0.24,0.01,0.46,0.03,0.66,0.06C8.6,4.15,8.64,4.18,8.64,4.22S8.62,4.3,8.59,4.36
		C8.55,4.43,8.53,4.57,8.5,4.71L8.48,4.79h1.15c0.64,0,0.86-0.01,0.89-0.01c0.07,0,0.08,0.01,0.08,0.07v0.44
		c0,0.07-0.01,0.08-0.08,0.08c-0.03,0-0.25-0.01-0.89-0.01H8.81c0.44,0.4,1.09,0.53,1.9,0.66c-0.1,0.12-0.19,0.28-0.23,0.42
		c-0.07,0.21-0.09,0.2-0.29,0.16C9.32,6.4,8.66,6.11,8.19,5.51C7.79,6.11,7.12,6.4,6.27,6.59C6.09,6.63,6.06,6.63,5.98,6.44
		C5.93,6.31,5.84,6.17,5.74,6.07C6.61,5.92,7.2,5.73,7.53,5.35H6.83z M6.4,9.67c-0.07,0-0.08-0.01-0.08-0.07
		c0-0.05,0.01-0.18,0.01-0.94V8.28c0-0.37-0.01-0.53-0.01-0.57c0-0.07,0.01-0.07,0.08-0.07c0.04,0,0.2,0.01,0.69,0.01h0.86
		c0.49,0,0.65-0.01,0.69-0.01c0.07,0,0.07,0.01,0.07,0.07c0,0.04-0.01,0.19-0.01,0.46v0.41c0,0.72,0.01,0.85,0.01,0.89
		c0,0.07-0.01,0.08-0.07,0.08H8.15c-0.07,0-0.07-0.01-0.07-0.08V9.29H6.95v0.3c0,0.07-0.01,0.07-0.07,0.07H6.4z M6.95,8.75h1.13
		V8.19H6.95V8.75z"/>
	<path class="st1" d="M15.03,6.24c-0.05,0.55-0.14,1.11-0.33,1.59c-0.37,0.97-1.01,1.63-1.99,2.15c-0.08,0.03-0.13,0.06-0.16,0.06
		c-0.05,0-0.09-0.04-0.16-0.14c-0.13-0.17-0.28-0.3-0.41-0.38c1.07-0.47,1.74-1.09,2.05-1.95c0.15-0.42,0.24-0.86,0.28-1.32h-1.03
		c-0.63,0-0.85,0.01-0.88,0.01c-0.07,0-0.08-0.01-0.08-0.07V5.65c0-0.07,0.01-0.07,0.08-0.07c0.03,0,0.25,0.01,0.88,0.01h1.06
		c0-0.19,0.01-0.38,0.01-0.57c0-0.32-0.01-0.58-0.06-0.88c0.26,0.01,0.55,0.03,0.78,0.07c0.1,0.01,0.13,0.05,0.13,0.09
		c0,0.07-0.03,0.11-0.06,0.16c-0.03,0.08-0.05,0.27-0.05,0.56c0,0.18,0,0.37-0.01,0.56h1.38c0.64,0,0.86-0.01,0.9-0.01
		c0.07,0,0.08,0.01,0.08,0.08c-0.01,0.2-0.01,0.42-0.01,0.59c-0.01,1.09-0.07,2.18-0.2,2.89C17.1,9.77,16.78,10,16.12,10
		c-0.25,0.01-0.43-0.01-0.63-0.03c-0.2-0.02-0.2-0.03-0.24-0.24c-0.05-0.21-0.11-0.38-0.19-0.52c0.43,0.07,0.66,0.09,0.99,0.09
		c0.24,0,0.41-0.09,0.48-0.44c0.11-0.63,0.17-1.52,0.17-2.62H15.03z"/>
	<path class="st1" d="M19.7,5.51c-0.59,0-0.79,0.01-0.83,0.01c-0.07,0-0.08-0.01-0.08-0.07V4.94c0-0.07,0.01-0.07,0.08-0.07
		c0.04,0,0.24,0.01,0.83,0.01h1.58c-0.01-0.3-0.02-0.5-0.05-0.77c0.24,0.01,0.51,0.01,0.74,0.05c0.06,0.01,0.11,0.03,0.11,0.07
		c0,0.05-0.02,0.08-0.04,0.13c-0.02,0.07-0.04,0.17-0.04,0.53h1.71c0.59,0,0.79-0.01,0.83-0.01c0.07,0,0.08,0.01,0.08,0.07v0.52
		c0,0.06-0.01,0.07-0.08,0.07c-0.04,0-0.24-0.01-0.83-0.01h-1.71v0.55h0.76c0.64,0,0.86-0.01,0.91-0.01c0.07,0,0.07,0.01,0.07,0.07
		c0,0.03-0.01,0.19-0.01,0.54V7.4c0,0.36,0.01,0.51,0.01,0.55c0,0.07-0.01,0.08-0.07,0.08c-0.05,0-0.27-0.01-0.91-0.01h-0.11v1.12
		c0,0.14,0.03,0.2,0.1,0.22c0.08,0.02,0.2,0.03,0.49,0.03c0.33,0,0.53-0.03,0.6-0.09c0.11-0.09,0.13-0.3,0.14-0.66
		c0.15,0.07,0.31,0.13,0.47,0.17c0.18,0.05,0.18,0.05,0.16,0.22c-0.05,0.47-0.13,0.66-0.32,0.81c-0.17,0.13-0.49,0.18-1.12,0.18
		c-0.54,0-0.79-0.01-0.98-0.12c-0.14-0.09-0.24-0.24-0.24-0.53V8.01h-0.62c-0.05,1.11-0.68,1.74-2.02,2.06
		c-0.07,0.01-0.11,0.03-0.14,0.03c-0.06,0-0.09-0.04-0.14-0.17c-0.08-0.17-0.2-0.34-0.3-0.43c1.38-0.2,1.86-0.64,1.9-1.49h-0.04
		c-0.64,0-0.86,0.01-0.91,0.01c-0.07,0-0.07-0.01-0.07-0.08c0-0.04,0.01-0.19,0.01-0.55V6.65c0-0.35-0.01-0.5-0.01-0.54
		c0-0.07,0.01-0.07,0.07-0.07c0.05,0,0.27,0.01,0.91,0.01h0.71V5.51H19.7z M23.02,6.62H20.3v0.82h2.72V6.62z"/>
</g>
<g id="XMLID_12_">
	<path class="st1" d="M29.85,8.96c0.05-0.09,0.09-0.17,0.12-0.26c0.15,0.05,0.32,0.11,0.45,0.18c0.07,0.03,0.11,0.06,0.11,0.09
		c0,0.03-0.01,0.05-0.05,0.08c-0.04,0.03-0.1,0.13-0.14,0.2c-0.09,0.15-0.25,0.37-0.39,0.54c-0.07,0.08-0.11,0.12-0.15,0.12
		c-0.04,0-0.08-0.03-0.14-0.1c-0.12-0.12-0.23-0.18-0.34-0.24C29.55,9.38,29.71,9.21,29.85,8.96z M30.27,7.05
		c-0.61,0-0.82,0.01-0.86,0.01c-0.07,0-0.07-0.01-0.07-0.07V6.6c0-0.07,0.01-0.08,0.07-0.08c0.04,0,0.25,0.01,0.86,0.01h0.6V6.21
		h-0.28c-0.55,0-0.74,0.01-0.79,0.01c-0.07,0-0.07-0.01-0.07-0.07c0-0.04,0.01-0.18,0.01-0.54V4.95c0-0.35-0.01-0.49-0.01-0.53
		c0-0.07,0.01-0.07,0.07-0.07c0.05,0,0.24,0.01,0.79,0.01h1.18c0.55,0,0.74-0.01,0.78-0.01c0.07,0,0.08,0.01,0.08,0.07
		c0,0.04-0.01,0.18-0.01,0.53v0.66c0,0.36,0.01,0.5,0.01,0.54c0,0.07-0.01,0.07-0.08,0.07c-0.04,0-0.23-0.01-0.78-0.01h-0.26v0.32
		h0.46c0.62,0,0.82-0.01,0.86-0.01c0.07,0,0.07,0.01,0.07,0.08v0.39c0,0.07-0.01,0.07-0.07,0.07c-0.04,0-0.24-0.01-0.86-0.01H30.27z
		 M31.69,7.34c0.53,0,0.71-0.01,0.76-0.01c0.07,0,0.07,0.01,0.07,0.07c0,0.04-0.01,0.13-0.01,0.39v0.37c0,0.26,0.01,0.36,0.01,0.39
		c0,0.07-0.01,0.07-0.07,0.07c-0.05,0-0.23-0.01-0.76-0.01h-0.17v0.15c0,0.22,0.03,0.44,0.03,0.68c0,0.26-0.07,0.45-0.23,0.56
		c-0.13,0.09-0.28,0.09-0.63,0.09c-0.21,0.01-0.21,0.01-0.24-0.13c-0.04-0.21-0.1-0.35-0.16-0.48c0.13,0.02,0.28,0.03,0.4,0.03
		c0.16,0,0.2-0.05,0.2-0.2v-0.7h-0.24c-0.53,0-0.7,0.01-0.75,0.01c-0.07,0-0.07-0.01-0.07-0.07c0-0.05,0.01-0.13,0.01-0.39V7.79
		c0-0.26-0.01-0.34-0.01-0.39c0-0.07,0.01-0.07,0.07-0.07c0.05,0,0.22,0.01,0.75,0.01H31.69z M30.36,5.09h1.62V4.8h-1.62V5.09z
		 M31.98,5.49h-1.62v0.3h1.62V5.49z M31.88,7.78h-1.41v0.39h1.41V7.78z M32.18,8.71c0.08-0.04,0.08-0.03,0.13,0.03
		c0.18,0.2,0.33,0.43,0.45,0.67c0.78-0.38,1.35-0.81,1.8-1.32c0.1-0.12,0.16-0.2,0.24-0.35c0.19,0.13,0.34,0.24,0.49,0.38
		c0.05,0.05,0.07,0.08,0.07,0.12c0,0.05-0.03,0.07-0.08,0.09c-0.05,0.03-0.11,0.09-0.22,0.22c-0.51,0.57-1.11,1.03-1.88,1.43
		c-0.08,0.05-0.13,0.07-0.16,0.07c-0.05,0-0.07-0.03-0.12-0.11c-0.08-0.14-0.16-0.24-0.27-0.33L32.4,9.76
		c-0.08,0.05-0.09,0.04-0.12-0.03c-0.13-0.28-0.27-0.52-0.45-0.75c-0.05-0.06-0.03-0.07,0.05-0.11L32.18,8.71z M35.12,6.27
		c0.06,0.05,0.07,0.08,0.07,0.11c0,0.04-0.03,0.07-0.08,0.09C35.04,6.5,35,6.54,34.89,6.67c-0.41,0.47-0.94,0.85-1.59,1.18
		c-0.07,0.04-0.12,0.06-0.15,0.06c-0.05,0-0.07-0.05-0.13-0.16c-0.09-0.16-0.2-0.28-0.32-0.38c0.76-0.32,1.32-0.75,1.7-1.18
		c0.09-0.11,0.15-0.18,0.22-0.29C34.84,6.03,34.98,6.13,35.12,6.27z M35,4.59c0.05,0.04,0.08,0.07,0.08,0.11
		c0,0.04-0.03,0.07-0.07,0.09c-0.05,0.03-0.14,0.09-0.24,0.17c-0.38,0.39-0.82,0.7-1.42,0.98c-0.07,0.03-0.12,0.05-0.15,0.05
		c-0.05,0-0.07-0.04-0.13-0.14c-0.1-0.18-0.19-0.28-0.3-0.4c0.68-0.26,1.12-0.57,1.52-0.97c0.08-0.09,0.14-0.16,0.2-0.26
		C34.69,4.34,34.88,4.47,35,4.59z"/>
	<path class="st1" d="M36.7,7.63c0-0.27,0.01-0.62,0.01-0.95c-0.13,0.18-0.26,0.36-0.4,0.53C36.27,7.27,36.23,7.3,36.2,7.3
		s-0.05-0.05-0.08-0.14c-0.05-0.18-0.13-0.37-0.21-0.51c0.53-0.58,0.9-1.29,1.18-2.09c0.05-0.16,0.09-0.3,0.1-0.46
		c0.25,0.07,0.41,0.11,0.61,0.19c0.07,0.03,0.11,0.05,0.11,0.1c0,0.05-0.03,0.07-0.07,0.11c-0.05,0.05-0.1,0.14-0.16,0.32
		c-0.1,0.3-0.22,0.57-0.36,0.84v3.41c0,0.65,0.01,0.97,0.01,1c0,0.07-0.01,0.07-0.07,0.07h-0.52c-0.07,0-0.07-0.01-0.07-0.07
		c0-0.04,0.01-0.36,0.01-1V7.63z M39.61,7.14c0.49,0.51,0.75,1.16,0.75,1.86c0,0.81-0.36,1.09-0.78,1.09c-0.1,0-0.21,0-0.33-0.01
		c-0.2-0.01-0.2-0.02-0.23-0.19c-0.03-0.16-0.09-0.32-0.15-0.44c0.24,0.03,0.35,0.05,0.53,0.05c0.26,0,0.37-0.09,0.37-0.61
		c0-0.04,0-0.08-0.01-0.13c-0.56,0.45-1.12,0.75-1.84,1.01c-0.06,0.02-0.1,0.03-0.13,0.03c-0.05,0-0.07-0.03-0.1-0.11
		c-0.08-0.18-0.16-0.3-0.26-0.39c0.84-0.25,1.6-0.61,2.22-1.09C39.62,8.14,39.59,8.07,39.56,8c-0.52,0.36-1.01,0.62-1.63,0.85
		c-0.07,0.03-0.11,0.04-0.13,0.04c-0.05,0-0.07-0.03-0.1-0.11c-0.06-0.14-0.14-0.26-0.24-0.36c0.76-0.22,1.31-0.47,1.84-0.83
		c-0.04-0.06-0.09-0.11-0.14-0.16c-0.38,0.23-0.76,0.4-1.17,0.55C37.93,8,37.88,8.01,37.85,8.01c-0.05,0-0.07-0.03-0.1-0.11
		c-0.06-0.13-0.14-0.28-0.24-0.38c0.64-0.16,1.13-0.35,1.56-0.61h-0.13c-0.62,0-0.86,0.01-0.89,0.01c-0.07,0-0.07-0.01-0.07-0.07
		c0-0.05,0.01-0.16,0.01-0.45V6.13L37.9,6.19c-0.08,0.06-0.13,0.09-0.16,0.09c-0.04,0-0.06-0.04-0.1-0.11
		C37.55,6,37.47,5.92,37.39,5.82c0.67-0.42,1.03-0.86,1.3-1.3c0.08-0.14,0.14-0.28,0.18-0.42c0.24,0.04,0.41,0.07,0.58,0.11
		c0.07,0.02,0.12,0.05,0.12,0.09c0,0.05-0.03,0.09-0.08,0.12c-0.05,0.03-0.09,0.09-0.16,0.19h0.95c0.09,0,0.13-0.01,0.16-0.02
		c0.03-0.01,0.06-0.03,0.09-0.03c0.05,0,0.1,0.03,0.26,0.18c0.14,0.12,0.16,0.16,0.16,0.22c0,0.05-0.03,0.08-0.09,0.11
		c-0.05,0.03-0.1,0.09-0.16,0.16c-0.09,0.11-0.16,0.21-0.26,0.31h0.28c0.63,0,0.86-0.01,0.91-0.01c0.07,0,0.07,0.01,0.07,0.07
		c0,0.04-0.01,0.15-0.01,0.43v0.4c0,0.28,0.01,0.39,0.01,0.43c0,0.07-0.01,0.07-0.07,0.07c-0.05,0-0.28-0.01-0.91-0.01h-0.1
		c0.07,0.29,0.16,0.55,0.26,0.79c0.12-0.11,0.23-0.23,0.33-0.34c0.08-0.1,0.13-0.18,0.19-0.29c0.19,0.11,0.36,0.21,0.47,0.3
		c0.06,0.05,0.09,0.07,0.09,0.11c0,0.05-0.04,0.08-0.09,0.1c-0.06,0.03-0.14,0.09-0.22,0.17c-0.15,0.15-0.31,0.3-0.49,0.45
		c0.26,0.39,0.61,0.7,1.05,0.99c-0.13,0.14-0.21,0.26-0.29,0.42c-0.05,0.1-0.09,0.14-0.13,0.14c-0.04,0-0.09-0.03-0.16-0.1
		c-0.8-0.69-1.27-1.53-1.57-2.74h-0.13L39.61,7.14z M39.51,6.47V5.99h-0.93v0.47H39.51z M39.74,5.53c0.14-0.14,0.25-0.27,0.35-0.42
		h-1.07c-0.11,0.14-0.23,0.28-0.36,0.42H39.74z M41.09,5.99h-0.98v0.47h0.98V5.99z"/>
	<path class="st1" d="M43.81,9.54c-0.59,0-0.79,0.01-0.83,0.01c-0.07,0-0.07-0.01-0.07-0.07V8.92c0-0.07,0.01-0.07,0.07-0.07
		c0.04,0,0.24,0.01,0.83,0.01h1.59V5.46h-1.16c-0.64,0-0.85,0.01-0.89,0.01c-0.07,0-0.07-0.01-0.07-0.07V4.84
		c0-0.07,0.01-0.07,0.07-0.07c0.04,0,0.25,0.01,0.89,0.01h3.16c0.63,0,0.84-0.01,0.88-0.01c0.07,0,0.07,0.01,0.07,0.07V5.4
		c0,0.07-0.01,0.07-0.07,0.07c-0.04,0-0.25-0.01-0.88-0.01h-1.26v3.41h1.68c0.59,0,0.79-0.01,0.83-0.01c0.07,0,0.07,0.01,0.07,0.07
		v0.55c0,0.07-0.01,0.07-0.07,0.07c-0.04,0-0.24-0.01-0.83-0.01H43.81z"/>
	<path class="st1" d="M50.42,7.55c0-0.24,0.01-0.54,0.01-0.83c-0.15,0.22-0.32,0.41-0.49,0.61c-0.05,0.05-0.09,0.08-0.11,0.08
		c-0.04,0-0.07-0.03-0.09-0.11c-0.05-0.23-0.15-0.45-0.24-0.57c0.62-0.62,1.06-1.43,1.34-2.17c0.06-0.15,0.09-0.32,0.12-0.47
		c0.24,0.07,0.45,0.12,0.64,0.19c0.08,0.03,0.1,0.06,0.1,0.1c0,0.05-0.01,0.07-0.07,0.12c-0.05,0.04-0.08,0.09-0.14,0.28
		c-0.11,0.29-0.24,0.59-0.39,0.87v3.43c0,0.65,0.01,0.97,0.01,1c0,0.07-0.01,0.07-0.07,0.07h-0.56c-0.07,0-0.07-0.01-0.07-0.07
		c0-0.04,0.01-0.36,0.01-1V7.55z M52.63,5.89c-0.23,0.42-0.5,0.84-0.79,1.19c-0.06,0.07-0.09,0.11-0.12,0.11
		c-0.04,0-0.07-0.04-0.13-0.13c-0.1-0.18-0.22-0.32-0.32-0.4c0.53-0.56,0.99-1.42,1.2-2.05c0.05-0.16,0.09-0.35,0.1-0.5
		c0.24,0.05,0.45,0.09,0.65,0.14c0.08,0.02,0.13,0.05,0.13,0.1s-0.01,0.09-0.06,0.13c-0.05,0.04-0.11,0.15-0.17,0.32
		c-0.06,0.16-0.13,0.32-0.2,0.49h1.72c0.59,0,0.78-0.01,0.82-0.01c0.07,0,0.08,0.01,0.08,0.08v0.48c0,0.07-0.01,0.08-0.08,0.08
		c-0.03,0-0.23-0.01-0.82-0.01h-1.07v0.78h0.84c0.52,0,0.69-0.01,0.73-0.01c0.07,0,0.07,0.01,0.07,0.07v0.48
		c0,0.07-0.01,0.07-0.07,0.07c-0.04,0-0.21-0.01-0.73-0.01h-0.84v0.8h0.84c0.53,0,0.7-0.01,0.74-0.01c0.07,0,0.07,0.01,0.07,0.07
		v0.49c0,0.07-0.01,0.08-0.07,0.08c-0.04,0-0.22-0.01-0.74-0.01h-0.84v0.36c0,0.66,0.01,0.99,0.01,1.03c0,0.07-0.01,0.07-0.07,0.07
		h-0.56c-0.07,0-0.07-0.01-0.07-0.07c0-0.04,0.01-0.37,0.01-1.03V5.89H52.63z"/>
	<path class="st1" d="M57.26,9.9c-0.58,0-0.78,0.01-0.82,0.01c-0.07,0-0.07-0.01-0.07-0.07v-0.5c0-0.07,0-0.07,0.07-0.07
		c0.04,0,0.24,0.01,0.82,0.01h1.66V8.73h-0.89c-0.64,0-0.86,0.01-0.91,0.01c-0.07,0-0.07-0.01-0.07-0.07V8.21
		c0-0.07,0.01-0.08,0.07-0.08c0.05,0,0.27,0.01,0.91,0.01h0.89c0-0.24-0.01-0.4-0.04-0.55c0.23,0.01,0.45,0.02,0.68,0.04
		c0.07,0.01,0.1,0.03,0.1,0.07c0,0.05-0.02,0.08-0.04,0.12c-0.03,0.05-0.03,0.13-0.03,0.32h0.97c0.64,0,0.87-0.01,0.91-0.01
		c0.07,0,0.07,0.01,0.07,0.08v0.46c0,0.07-0.01,0.07-0.07,0.07c-0.04,0-0.26-0.01-0.91-0.01h-0.97v0.55h1.74
		c0.59,0,0.79-0.01,0.83-0.01c0.07,0,0.07,0,0.07,0.07v0.5c0,0.07,0,0.07-0.07,0.07c-0.04,0-0.24-0.01-0.83-0.01H57.26z M61.16,4.65
		c0.6,0,0.82-0.01,0.86-0.01c0.07,0,0.07,0.01,0.07,0.08c0,0.03-0.01,0.14-0.01,0.3v0.26c0,0.55,0.01,0.64,0.01,0.68
		c0,0.07-0.01,0.07-0.07,0.07H61.5c-0.07,0-0.08-0.01-0.08-0.07V5.24h-4.26v0.71c0,0.07-0.01,0.07-0.07,0.07h-0.53
		c-0.07,0-0.08-0.01-0.08-0.07c0-0.04,0.01-0.13,0.01-0.68V5.07c0-0.21-0.01-0.32-0.01-0.35c0-0.07,0.01-0.08,0.08-0.08
		c0.04,0,0.26,0.01,0.86,0.01h1.48V4.57c0-0.18-0.01-0.34-0.05-0.49c0.24,0.01,0.48,0.02,0.7,0.04c0.07,0.01,0.1,0.03,0.1,0.07
		c0,0.05-0.02,0.08-0.04,0.13c-0.03,0.05-0.03,0.13-0.03,0.26v0.07H61.16z M58.24,6.25c-0.55,0-0.76,0.01-0.81,0.01
		c-0.07,0-0.07-0.01-0.07-0.07V5.75c0-0.07,0.01-0.07,0.07-0.07c0.05,0,0.26,0.01,0.81,0.01h2.11c0.55,0,0.76-0.01,0.8-0.01
		c0.07,0,0.07,0.01,0.07,0.07v0.44c0,0.07-0.01,0.07-0.07,0.07c-0.04,0-0.22-0.01-0.63-0.01l0.03,0.02c0.35,0.28,0.76,0.7,1.07,1.07
		c0.05,0.06,0.04,0.09-0.03,0.14l-0.37,0.26c-0.03,0.03-0.05,0.03-0.07,0.03c-0.02,0-0.04-0.01-0.06-0.05L60.8,7.36
		c-1.1,0.11-2.3,0.18-3.42,0.22c-0.14,0.01-0.2,0.01-0.24,0.04c-0.03,0.02-0.05,0.03-0.09,0.03c-0.04,0-0.06-0.03-0.07-0.09
		c-0.04-0.17-0.08-0.39-0.11-0.59c0.24,0.01,0.46,0.01,0.68,0.01c0.12,0,0.24,0,0.37-0.01c0.16-0.26,0.32-0.51,0.41-0.74H58.24z
		 M59.07,6.25c-0.14,0.28-0.28,0.51-0.42,0.72c0.57-0.02,1.16-0.05,1.73-0.09l-0.32-0.31C60,6.51,60.01,6.5,60.09,6.46l0.32-0.2
		H59.07z"/>
</g>
<g id="XMLID_11_">
	<path class="st1" d="M7.48,62.97h0.46l0.56,1.69c0.07,0.22,0.14,0.45,0.2,0.68c0.07,0.23,0.13,0.45,0.18,0.65
		c0.01-0.04,0.03-0.08,0.04-0.11c0.01-0.03,0.02-0.06,0.03-0.09c0.05-0.17,0.1-0.34,0.15-0.52c0.05-0.17,0.1-0.36,0.15-0.54
		l0.55-1.76h0.5l-1.2,3.59H8.65l-0.64-1.98c-0.07-0.21-0.13-0.38-0.17-0.51c-0.04-0.12-0.07-0.21-0.08-0.25
		c-0.02-0.08-0.03-0.14-0.04-0.19c-0.01-0.05-0.01-0.1-0.01-0.15c-0.04,0.12-0.08,0.23-0.1,0.32c-0.03,0.09-0.05,0.17-0.07,0.24
		c-0.06,0.2-0.1,0.36-0.13,0.48c-0.03,0.12-0.05,0.2-0.06,0.24l-0.57,1.8H6.32l-1.19-3.59h0.52l0.95,3.02
		c0.02-0.13,0.05-0.25,0.07-0.37c0.03-0.11,0.06-0.22,0.09-0.33c0.02-0.08,0.04-0.15,0.07-0.24c0.02-0.08,0.05-0.16,0.08-0.25
		L7.48,62.97z"/>
	<path class="st1" d="M13.08,62.97h0.46l0.56,1.69c0.07,0.22,0.14,0.45,0.2,0.68c0.07,0.23,0.13,0.45,0.18,0.65
		c0.01-0.04,0.03-0.08,0.04-0.11c0.01-0.03,0.02-0.06,0.03-0.09c0.05-0.17,0.1-0.34,0.15-0.52c0.05-0.17,0.1-0.36,0.15-0.54
		l0.55-1.76h0.5l-1.2,3.59h-0.45l-0.64-1.98c-0.07-0.21-0.13-0.38-0.17-0.51c-0.04-0.12-0.07-0.21-0.08-0.25
		c-0.02-0.08-0.03-0.14-0.04-0.19c-0.01-0.05-0.01-0.1-0.01-0.15c-0.04,0.12-0.08,0.23-0.1,0.32c-0.03,0.09-0.05,0.17-0.07,0.24
		c-0.06,0.2-0.1,0.36-0.13,0.48c-0.03,0.12-0.05,0.2-0.06,0.24l-0.57,1.8h-0.46l-1.19-3.59h0.52l0.95,3.02
		c0.02-0.13,0.05-0.25,0.07-0.37c0.03-0.11,0.06-0.22,0.09-0.33c0.02-0.08,0.04-0.15,0.07-0.24c0.02-0.08,0.05-0.16,0.08-0.25
		L13.08,62.97z"/>
	<path class="st1" d="M18.68,62.97h0.46l0.56,1.69c0.07,0.22,0.14,0.45,0.2,0.68c0.07,0.23,0.13,0.45,0.18,0.65
		c0.01-0.04,0.03-0.08,0.04-0.11c0.01-0.03,0.02-0.06,0.03-0.09c0.05-0.17,0.1-0.34,0.15-0.52c0.05-0.17,0.1-0.36,0.15-0.54
		L21,62.97h0.5l-1.2,3.59h-0.45l-0.64-1.98c-0.07-0.21-0.13-0.38-0.17-0.51c-0.04-0.12-0.07-0.21-0.08-0.25
		c-0.02-0.08-0.03-0.14-0.04-0.19c-0.01-0.05-0.01-0.1-0.01-0.15c-0.04,0.12-0.08,0.23-0.1,0.32c-0.03,0.09-0.05,0.17-0.07,0.24
		c-0.06,0.2-0.1,0.36-0.13,0.48c-0.03,0.12-0.05,0.2-0.06,0.24l-0.57,1.8h-0.46l-1.19-3.59h0.52l0.95,3.02
		c0.02-0.13,0.05-0.25,0.07-0.37c0.03-0.11,0.06-0.22,0.09-0.33c0.02-0.08,0.04-0.15,0.07-0.24c0.02-0.08,0.05-0.16,0.08-0.25
		L18.68,62.97z"/>
	<path class="st1" d="M22.68,66.57c-0.11,0-0.2-0.04-0.27-0.13c-0.08-0.09-0.11-0.2-0.11-0.33c0-0.13,0.04-0.25,0.12-0.34
		c0.08-0.09,0.17-0.14,0.27-0.14c0.1,0,0.19,0.04,0.26,0.12c0.08,0.08,0.12,0.2,0.12,0.34c0,0.13-0.04,0.25-0.11,0.34
		C22.88,66.53,22.79,66.57,22.68,66.57z"/>
	<path class="st1" d="M24.34,61.3h0.49v3.25l1.65-1.58h0.68l-1.51,1.39l1.72,2.19h-0.66l-1.42-1.87l-0.46,0.43v1.44h-0.49V61.3z"/>
	<path class="st1" d="M27.67,62.97h0.54L29.44,66l1.05-3.03h0.53l-1.49,4c-0.11,0.29-0.25,0.49-0.42,0.61
		c-0.15,0.1-0.33,0.15-0.54,0.15c-0.11,0-0.2-0.01-0.27-0.02c-0.07-0.02-0.14-0.04-0.21-0.06v-0.46c0.06,0.03,0.13,0.06,0.21,0.08
		c0.08,0.02,0.15,0.03,0.21,0.03c0.16,0,0.28-0.04,0.37-0.12c0.09-0.08,0.16-0.21,0.23-0.38l0.08-0.27L27.67,62.97z"/>
	<path class="st1" d="M33.44,62.97v0.48c-0.05-0.02-0.09-0.03-0.12-0.04c-0.03-0.01-0.06-0.02-0.08-0.02
		c-0.02,0-0.05-0.01-0.07-0.01c-0.02,0-0.06,0-0.1,0c-0.33,0-0.59,0.16-0.8,0.48C32.09,64.14,32,64.46,32,64.82v1.74h-0.48v-3.59
		h0.44L32,63.58c0.11-0.19,0.22-0.32,0.32-0.4c0.2-0.17,0.44-0.25,0.72-0.25c0.08,0,0.15,0,0.21,0.01
		C33.31,62.94,33.38,62.95,33.44,62.97z"/>
	<path class="st1" d="M34.08,61.45c0.09,0,0.17,0.03,0.23,0.09c0.06,0.06,0.09,0.15,0.09,0.27c0,0.12-0.03,0.21-0.09,0.27
		c-0.06,0.06-0.14,0.09-0.24,0.09s-0.18-0.04-0.24-0.11c-0.06-0.07-0.08-0.15-0.08-0.25c0-0.15,0.03-0.25,0.1-0.3
		C33.93,61.48,34,61.45,34.08,61.45z M33.85,62.97h0.48v3.59h-0.48V62.97z"/>
	<path class="st1" d="M37.88,63.28v0.63c-0.25-0.24-0.51-0.41-0.77-0.51c-0.08-0.03-0.15-0.05-0.23-0.06
		c-0.08-0.01-0.16-0.02-0.24-0.02c-0.37,0-0.68,0.14-0.91,0.42c-0.24,0.29-0.36,0.63-0.36,1.02c0,0.4,0.12,0.75,0.37,1.03
		c0.25,0.27,0.55,0.41,0.93,0.41c0.23,0,0.44-0.05,0.64-0.15c0.19-0.1,0.39-0.25,0.58-0.45v0.64c-0.24,0.15-0.45,0.25-0.64,0.31
		c-0.19,0.06-0.39,0.09-0.58,0.09c-0.5,0-0.93-0.18-1.29-0.54c-0.35-0.37-0.52-0.82-0.52-1.34c0-0.51,0.17-0.96,0.52-1.33
		c0.35-0.37,0.78-0.55,1.3-0.55c0.26,0,0.51,0.04,0.74,0.13C37.53,63.07,37.69,63.16,37.88,63.28z"/>
	<path class="st1" d="M38.36,66.25v-0.58c0.28,0.22,0.56,0.38,0.84,0.47c0.08,0.02,0.17,0.04,0.25,0.05
		c0.08,0.01,0.16,0.02,0.25,0.02c0.27,0,0.5-0.06,0.68-0.19c0.18-0.13,0.27-0.28,0.27-0.45c0-0.09-0.03-0.18-0.1-0.27
		c-0.09-0.12-0.34-0.22-0.75-0.32c-0.48-0.12-0.8-0.22-0.97-0.3c-0.31-0.18-0.47-0.43-0.47-0.75c0-0.3,0.13-0.55,0.39-0.74
		c0.26-0.2,0.59-0.3,0.99-0.3c0.18,0,0.34,0.02,0.48,0.05c0.14,0.03,0.28,0.07,0.4,0.12c0.13,0.05,0.24,0.12,0.35,0.19v0.58
		c-0.19-0.16-0.38-0.28-0.59-0.37c-0.21-0.09-0.42-0.14-0.65-0.14c-0.23,0-0.42,0.05-0.59,0.15c-0.17,0.1-0.26,0.24-0.26,0.4
		c0,0.22,0.2,0.39,0.6,0.52c0.19,0.05,0.37,0.11,0.56,0.16c0.18,0.05,0.37,0.11,0.56,0.16c0.41,0.17,0.61,0.44,0.61,0.79
		c0,0.3-0.14,0.56-0.42,0.79c-0.29,0.22-0.64,0.33-1.07,0.33c-0.19,0-0.37-0.02-0.55-0.06C38.89,66.52,38.62,66.41,38.36,66.25z"/>
	<path class="st1" d="M42.17,61.91h0.44v1.05h0.95v0.44h-0.95v2.28c0,0.19,0.03,0.32,0.1,0.4c0.07,0.08,0.19,0.12,0.36,0.12
		c0.1,0,0.18-0.01,0.25-0.03c0.07-0.02,0.15-0.05,0.23-0.09v0.44c-0.07,0.02-0.16,0.04-0.26,0.06c-0.1,0.02-0.2,0.03-0.31,0.03
		c-0.27,0-0.48-0.06-0.62-0.18c-0.17-0.12-0.25-0.33-0.25-0.6V63.4h-0.6v-0.44h0.6L42.17,61.91z"/>
	<path class="st1" d="M44.02,62.97h0.49v2.29c0,0.26,0.07,0.47,0.22,0.64c0.16,0.2,0.39,0.3,0.68,0.3c0.34,0,0.63-0.14,0.87-0.41
		c0.25-0.29,0.38-0.6,0.38-0.95v-1.88h0.48v3.59h-0.42l-0.03-0.61c-0.07,0.1-0.15,0.19-0.23,0.26c-0.08,0.08-0.17,0.15-0.26,0.2
		c-0.25,0.15-0.53,0.23-0.82,0.23c-0.41,0-0.74-0.13-0.99-0.38c-0.25-0.26-0.37-0.57-0.37-0.95V62.97z"/>
	<path class="st1" d="M50.27,61.3h0.52v5.26h-0.46l-0.05-0.58c-0.06,0.09-0.12,0.17-0.19,0.24c-0.06,0.07-0.13,0.13-0.19,0.18
		c-0.22,0.17-0.48,0.25-0.78,0.25c-0.46,0-0.84-0.18-1.15-0.54c-0.3-0.36-0.45-0.79-0.45-1.3c0-0.53,0.16-0.98,0.48-1.35
		c0.32-0.38,0.72-0.57,1.21-0.57c0.2,0,0.39,0.04,0.56,0.11c0.06,0.03,0.14,0.06,0.22,0.11c0.08,0.04,0.18,0.1,0.28,0.16V61.3z
		 M50.27,64.82v-1.03c-0.21-0.18-0.39-0.31-0.55-0.37c-0.16-0.06-0.31-0.09-0.46-0.09c-0.37,0-0.66,0.15-0.89,0.46
		c-0.21,0.29-0.32,0.63-0.32,1.01c0,0.41,0.12,0.75,0.36,1.03c0.22,0.25,0.48,0.38,0.78,0.38c0.3,0,0.55-0.13,0.77-0.39
		C50.17,65.55,50.27,65.22,50.27,64.82z"/>
	<path class="st1" d="M51.59,61.45c0.09,0,0.17,0.03,0.23,0.09c0.06,0.06,0.09,0.15,0.09,0.27c0,0.12-0.03,0.21-0.09,0.27
		c-0.06,0.06-0.14,0.09-0.24,0.09s-0.18-0.04-0.24-0.11c-0.06-0.07-0.08-0.15-0.08-0.25c0-0.15,0.03-0.25,0.1-0.3
		C51.43,61.48,51.51,61.45,51.59,61.45z M51.35,62.97h0.48v3.59h-0.48V62.97z"/>
	<path class="st1" d="M54.13,66.64c-0.46,0-0.86-0.17-1.21-0.5c-0.37-0.35-0.56-0.81-0.56-1.37c0-0.53,0.16-0.98,0.49-1.33
		c0.33-0.36,0.75-0.54,1.24-0.54c0.49,0,0.9,0.18,1.23,0.54c0.33,0.36,0.5,0.8,0.5,1.33c0,0.55-0.18,1.01-0.54,1.37
		C54.95,66.47,54.57,66.64,54.13,66.64z M54.08,66.2c0.32,0,0.61-0.13,0.86-0.4c0.24-0.27,0.36-0.62,0.36-1.04
		c0-0.43-0.13-0.79-0.39-1.06c-0.24-0.25-0.51-0.38-0.82-0.38c-0.32,0-0.6,0.13-0.82,0.39c-0.25,0.29-0.38,0.64-0.38,1.05
		c0,0.42,0.12,0.77,0.37,1.05C53.49,66.07,53.76,66.2,54.08,66.2z"/>
	<path class="st1" d="M57.02,66.57c-0.11,0-0.2-0.04-0.27-0.13c-0.08-0.09-0.11-0.2-0.11-0.33c0-0.13,0.04-0.25,0.12-0.34
		c0.08-0.09,0.17-0.14,0.27-0.14c0.1,0,0.19,0.04,0.26,0.12c0.08,0.08,0.12,0.2,0.12,0.34c0,0.13-0.04,0.25-0.11,0.34
		C57.21,66.53,57.12,66.57,57.02,66.57z"/>
	<path class="st1" d="M61.6,63.28v0.63c-0.25-0.24-0.51-0.41-0.77-0.51c-0.08-0.03-0.15-0.05-0.23-0.06
		c-0.08-0.01-0.16-0.02-0.24-0.02c-0.37,0-0.68,0.14-0.91,0.42c-0.24,0.29-0.36,0.63-0.36,1.02c0,0.4,0.12,0.75,0.37,1.03
		c0.25,0.27,0.55,0.41,0.93,0.41c0.23,0,0.44-0.05,0.64-0.15c0.19-0.1,0.39-0.25,0.58-0.45v0.64c-0.24,0.15-0.45,0.25-0.64,0.31
		c-0.19,0.06-0.39,0.09-0.58,0.09c-0.5,0-0.93-0.18-1.29-0.54c-0.35-0.37-0.52-0.82-0.52-1.34c0-0.51,0.17-0.96,0.52-1.33
		c0.35-0.37,0.78-0.55,1.3-0.55c0.26,0,0.51,0.04,0.74,0.13C61.26,63.07,61.42,63.16,61.6,63.28z"/>
	<path class="st1" d="M63.83,66.64c-0.46,0-0.86-0.17-1.21-0.5c-0.37-0.35-0.56-0.81-0.56-1.37c0-0.53,0.16-0.98,0.49-1.33
		c0.33-0.36,0.75-0.54,1.24-0.54c0.49,0,0.9,0.18,1.23,0.54c0.33,0.36,0.5,0.8,0.5,1.33c0,0.55-0.18,1.01-0.54,1.37
		C64.65,66.47,64.27,66.64,63.83,66.64z M63.78,66.2c0.32,0,0.61-0.13,0.86-0.4c0.24-0.27,0.36-0.62,0.36-1.04
		c0-0.43-0.13-0.79-0.39-1.06c-0.24-0.25-0.51-0.38-0.82-0.38c-0.32,0-0.6,0.13-0.82,0.39c-0.25,0.29-0.38,0.64-0.38,1.05
		c0,0.42,0.12,0.77,0.37,1.05C63.19,66.07,63.46,66.2,63.78,66.2z"/>
	<path class="st1" d="M71.41,64.25v2.3h-0.49v-2.41c0-0.26-0.09-0.46-0.26-0.62c-0.15-0.13-0.32-0.2-0.52-0.2
		c-0.3,0-0.57,0.14-0.8,0.42c-0.23,0.27-0.35,0.61-0.35,1.01v1.8h-0.49v-2.41c0-0.24-0.08-0.44-0.25-0.58
		c-0.16-0.16-0.33-0.24-0.54-0.24c-0.29,0-0.55,0.13-0.78,0.39c-0.25,0.29-0.38,0.64-0.38,1.06v1.78h-0.49v-3.59h0.46l0.02,0.57
		c0.13-0.21,0.32-0.38,0.56-0.5c0.21-0.1,0.43-0.15,0.65-0.15c0.34,0,0.63,0.1,0.86,0.3c0.17,0.15,0.28,0.3,0.32,0.44
		c0.09-0.17,0.22-0.32,0.38-0.45c0.26-0.19,0.55-0.29,0.86-0.29c0.38,0,0.67,0.11,0.88,0.34C71.29,63.49,71.41,63.83,71.41,64.25z"
		/>
</g>
<g id="XMLID_10_">
	<path class="st1" d="M8.74,51.18c0.09,0.81,0.25,1.22,0.59,1.67c0.54,0.68,1.49,1.06,2.65,1.06c1.74,0,2.78-0.77,2.78-2.04
		c0-0.7-0.36-1.31-0.95-1.58c-0.48-0.23-1.04-0.38-3.39-0.93c-2.08-0.45-2.8-0.72-3.64-1.31c-1.43-1-2.19-2.51-2.19-4.34
		c0-3.48,2.8-5.68,7.26-5.68c2.87,0,5.07,0.88,6.29,2.58c0.57,0.75,0.84,1.42,1.13,2.71l-4.79,0.52c-0.27-1.47-1.09-2.08-2.8-2.08
		c-1.38,0-2.4,0.75-2.4,1.79c0,0.63,0.34,1.11,1.06,1.45c0.45,0.2,0.45,0.2,3.12,0.75c1.72,0.36,2.8,0.75,3.66,1.29
		c1.63,1.02,2.44,2.53,2.44,4.61c0,1.7-0.54,3.14-1.58,4.16c-1.31,1.27-3.3,1.92-5.95,1.92c-1.92,0-3.82-0.41-5.04-1.11
		C5.84,56,5.01,55.03,4.53,53.74c-0.23-0.54-0.34-1.06-0.5-2.1L8.74,51.18z"/>
	<path class="st1" d="M31.53,53.9c0,1.36,0.04,2.35,0.18,3.41h-5c0.14-1.06,0.18-1.99,0.18-3.41V42.5h-2.67
		c-1.42,0-1.81,0.02-3.41,0.16v-4.32c0.75,0.09,1.99,0.16,3.37,0.16h9.91c1.58,0,2.49-0.05,3.53-0.16v4.32
		c-1.02-0.11-1.9-0.16-3.53-0.16h-2.56V53.9z"/>
	<path class="st1" d="M56.66,38.5c-0.14,0.97-0.18,1.79-0.18,3.41v7.78c0,5.16-3.1,8.07-8.55,8.07c-2.8,0-5.09-0.79-6.45-2.22
		c-1.31-1.4-1.99-3.37-1.99-5.9v-7.73c0-1.56-0.05-2.56-0.18-3.41h4.88c-0.14,0.84-0.18,1.74-0.18,3.41v7.78
		c0,2.85,1.29,4.21,3.94,4.21c2.71,0,4-1.36,4-4.21v-7.78c0-1.7-0.04-2.4-0.18-3.41H56.66z"/>
	<path class="st1" d="M59.63,41.75c0-1.54-0.05-2.28-0.2-3.32c0.9,0.05,1.47,0.07,3.35,0.07h4.73c2.78,0,5.02,0.77,6.54,2.24
		c1.65,1.63,2.49,4,2.49,7.01c0,3.1-0.9,5.59-2.62,7.31c-1.51,1.49-3.66,2.26-6.35,2.26h-4.77c-1.74,0-2.37,0.02-3.32,0.07
		c0.14-1,0.18-1.74,0.18-3.3V41.75z M67.13,53.36c1.47,0,2.51-0.38,3.32-1.2c0.93-0.95,1.43-2.47,1.43-4.34
		c0-1.92-0.43-3.32-1.31-4.21c-0.79-0.79-1.88-1.15-3.51-1.15H64.1v10.9H67.13z"/>
	<path class="st1" d="M83.76,38.5c-0.14,0.93-0.18,1.7-0.18,3.35v12.12c0,1.56,0.05,2.4,0.18,3.35h-4.98
		c0.14-0.88,0.18-1.83,0.18-3.35V41.84c0-1.7-0.05-2.35-0.18-3.35H83.76z"/>
	<path class="st1" d="M104.25,47.82c0,5.97-3.64,9.93-9.14,9.93c-5.54,0-9.11-3.87-9.11-9.86c0-5.97,3.57-9.79,9.14-9.79
		C100.69,38.09,104.25,41.89,104.25,47.82z M99.54,47.86c0-3.66-1.67-5.88-4.41-5.88c-2.76,0-4.45,2.24-4.45,5.88
		c0,3.69,1.7,5.97,4.45,5.97C97.87,53.83,99.54,51.57,99.54,47.86z"/>
</g>
</svg>
