<svg xmlns="http://www.w3.org/2000/svg" width="27.97" height="29.496" viewBox="0 0 27.97 29.496">
  <path id="Path_29" data-name="Path 29" d="M41.9,66.451A58.177,58.177,0,0,0,45.661,71.7H36.445A42.255,42.255,0,0,0,34,67.195L28.5,58.4l-3.58,3.58v4.468a40.113,40.113,0,0,0,.284,5.246H17.691a39.888,39.888,0,0,0,.284-5.246v-19a38.557,38.557,0,0,0-.284-5.248h7.516a39.443,39.443,0,0,0-.284,5.248v6.274l7.054-7.55A21.558,21.558,0,0,0,35.063,42.2h9.572c-.639.638-.886.923-1.382,1.418-1.845,1.844-1.845,1.844-2.482,2.482l-7.41,7.764Z" transform="translate(-17.691 -42.201)" fill="#1a1311"/>
</svg>
