<?xml version="1.0" encoding="utf-8"?>
<!-- Generator: Adobe Illustrator 26.3.1, SVG Export Plug-In . SVG Version: 6.00 Build 0)  -->
<svg version="1.1" id="圖層_1" xmlns="http://www.w3.org/2000/svg" xmlns:xlink="http://www.w3.org/1999/xlink" x="0px" y="0px"
	 viewBox="0 0 379.7 389.91" style="enable-background:new 0 0 379.7 389.91;" xml:space="preserve">
<style type="text/css">
	.st0{fill:#231815;}
</style>
<path d="M283.6,361.25c-2.4,1.2-5,1.7-7.7,1.4c-14.7-1.8-27.5-5.4-40.1-10.1c-35.5-13.3-66.7-33.8-95.5-58.1
	c-36.7-31-67.6-66.9-91.1-108.9c-12.4-22.1-21.8-45.4-26.3-70.5c-1.3-7.4-0.5-13.8,3.9-20.1c15.3-21.8,31.9-42.5,51.6-60.6
	c1.1-1.1,2.4-2.1,3.6-3c5.7-4.3,13.7-3.5,18.5,1.7c0.8,0.9,1.6,1.8,2.2,2.8c15.3,21.6,29.5,44,40.9,67.9c6,12.7,5.4,15.1-5.1,24.5
	c-7.3,6.5-14.5,13-21.8,19.4c-1.6,1.4-1.9,2.8-1.3,4.9c8.2,28.5,23.4,52.8,44.3,73.6c18.8,18.7,40.7,32.5,65.8,41.2
	c9.5,3.3,9.7,3.3,16.4-4c4.2-4.6,8.2-9.5,12.3-14.2c2.1-2.4,4.4-4.8,6.6-7.2c4.2-4.6,9.1-5.9,14.8-3.1c9.9,5,20.1,9.5,29.6,15.2
	c13.8,8.1,27.1,16.9,40.5,25.6c3.1,2,6,4.5,8.6,7.2c4.5,4.6,4.9,8.3,1,13.3c-4.4,5.6-9.1,11-14.1,15.9c-15.4,15-32,28.7-49.9,40.7
	C288.7,358.65,286,360.05,283.6,361.25z"/>
</svg>
