<?xml version="1.0" encoding="utf-8"?>
<!-- Generator: Adobe Illustrator 26.3.1, SVG Export Plug-In . SVG Version: 6.00 Build 0)  -->
<svg version="1.1" id="圖層_1" xmlns="http://www.w3.org/2000/svg" xmlns:xlink="http://www.w3.org/1999/xlink" x="0px" y="0px"
	 viewBox="0 0 260 368.6" style="enable-background:new 0 0 260 368.6;" xml:space="preserve">
<style type="text/css">
	.st0{fill:#231815;}
	.st1{fill:#FFFFFF;}
</style>
<path d="M130,0C58.3,0,0,58.3,0,130c0,87.3,119.2,229.9,124.3,235.9c1.4,1.7,3.5,2.7,5.7,2.7c2.2,0,4.3-1,5.7-2.6
	c5-6,124.3-146.2,124.3-236C260,58.3,201.7,0,130,0z M130,182.9c-30.5,0-55.3-24.8-55.3-55.3S99.5,72.3,130,72.3
	s55.3,24.8,55.3,55.3S160.5,182.9,130,182.9z"/>
</svg>
